# Blender v2.76 (sub 0) OBJ File: 'Simple_mesh.blend'
# www.blender.org
mtllib Simple_mesh.mtl
o Cube
v 0.025000 0.025000 -0.025000
v 0.025000 -0.025000 -0.025000
v -0.025000 -0.025000 -0.025000
v -0.025000 0.025000 -0.025000
v 0.025000 0.025000 0.025000
v 0.025000 -0.025000 0.025000
v -0.025000 -0.025000 0.025000
v -0.025000 0.025000 0.025000
vt 0.522588 0.328300
vt 0.260645 0.328300
vt 0.260645 -0.012351
vt 0.522588 -0.012351
vt 0.529623 0.999909
vt 0.254193 0.999909
vt 0.254193 0.661191
vt 0.524329 0.657996
vt 0.250478 0.332431
vt 0.250478 0.655821
vt -0.006459 0.655821
vt -0.006459 0.332431
vt 1.002393 0.329875
vt 1.002393 0.670125
vt 0.781303 0.670125
vt 0.781303 0.329875
vt 0.526541 0.668802
vt 0.526542 0.341337
vt 0.782282 0.341337
vt 0.782282 0.668802
vt 0.245476 0.661389
vt 0.245476 0.344998
vt 0.524244 0.344998
vt 0.524244 0.661389
vn 0.000000 0.000000 -1.000000
vn -0.000000 0.000000 1.000000
vn 1.000000 -0.000000 0.000000
vn -0.000000 -1.000000 -0.000000
vn -1.000000 0.000000 -0.000000
vn 0.000000 1.000000 0.000000
usemtl Material
s off
f 1/1/1 2/2/1 3/3/1 4/4/1
f 5/5/2 8/6/2 7/7/2 6/8/2
f 1/9/3 5/10/3 6/11/3 2/12/3
f 2/13/4 6/14/4 7/15/4 3/16/4
f 3/17/5 7/18/5 8/19/5 4/20/5
f 5/21/6 1/22/6 4/23/6 8/24/6
